<svg width="50" height="50" viewBox="0 0 50 50" fill="none" xmlns="http://www.w3.org/2000/svg">
<path d="M29.4735 20.1821V26.7948C29.4735 26.9623 29.3433 27.0925 29.1759 27.0925H28.1157C28.0133 27.0925 27.9203 27.0367 27.8738 26.9716L24.8419 22.8793V26.8041C24.8419 26.9716 24.7116 27.1018 24.5442 27.1018H23.484C23.3166 27.1018 23.1863 26.9716 23.1863 26.8041V20.1914C23.1863 20.024 23.3166 19.8938 23.484 19.8938H24.5349C24.6279 19.8938 24.7302 19.9403 24.7767 20.024L27.8087 24.1163V20.1914C27.8087 20.024 27.9389 19.8938 28.1064 19.8938H29.1666C29.334 19.8845 29.4735 20.024 29.4735 20.1821ZM21.8471 19.8845H20.7868C20.6194 19.8845 20.4892 20.0147 20.4892 20.1821V26.7948C20.4892 26.9623 20.6194 27.0925 20.7868 27.0925H21.8471C22.0145 27.0925 22.1447 26.9623 22.1447 26.7948V20.1821C22.1447 20.024 22.0145 19.8845 21.8471 19.8845ZM19.2894 25.4277H16.3969V20.1821C16.3969 20.0147 16.2667 19.8845 16.0993 19.8845H15.039C14.8716 19.8845 14.7414 20.0147 14.7414 20.1821V26.7948C14.7414 26.8786 14.7693 26.9437 14.8251 26.9995C14.8809 27.046 14.946 27.0832 15.0297 27.0832H19.2801C19.4475 27.0832 19.5777 26.953 19.5777 26.7855V25.7253C19.5777 25.5672 19.4475 25.4277 19.2894 25.4277ZM35.0539 19.8845H30.8035C30.6454 19.8845 30.5059 20.0147 30.5059 20.1821V26.7948C30.5059 26.953 30.6361 27.0925 30.8035 27.0925H35.0539C35.2213 27.0925 35.3515 26.9623 35.3515 26.7948V25.7346C35.3515 25.5672 35.2213 25.437 35.0539 25.437H32.1614V24.3209H35.0539C35.2213 24.3209 35.3515 24.1907 35.3515 24.0233V22.9537C35.3515 22.7863 35.2213 22.6561 35.0539 22.6561H32.1614V21.54H35.0539C35.2213 21.54 35.3515 21.4098 35.3515 21.2424V20.1821C35.3422 20.024 35.212 19.8845 35.0539 19.8845ZM45.8333 11.7651V38.2997C45.824 42.4663 42.4107 45.8424 38.2347 45.8331H11.7001C7.53346 45.8238 4.15734 42.4012 4.16665 38.2346V11.7C4.17595 7.53334 7.59856 4.15722 11.7652 4.16652H38.2998C42.4665 4.17582 45.8426 7.58914 45.8333 11.7651ZM40.1041 23.1676C40.1041 16.3782 33.2961 10.8536 24.9349 10.8536C16.5736 10.8536 9.7656 16.3782 9.7656 23.1676C9.7656 29.2502 15.1599 34.3469 22.4516 35.3142C24.228 35.6955 24.0234 36.3465 23.6235 38.7368C23.5584 39.1181 23.3166 40.2342 24.9349 39.5553C26.5532 38.8763 33.6681 34.412 36.8582 30.7476C39.0531 28.3294 40.1041 25.8834 40.1041 23.1676Z" fill="white"/>
</svg>
