<svg width="94" height="58" viewBox="0 0 94 58" fill="none" xmlns="http://www.w3.org/2000/svg">
<g clip-path="url(#clip0_171_87509)">
<path d="M9.63784 16.1414H15.5933C21.7729 16.1414 24.8613 19.1866 24.8613 23.7868V23.83C24.8613 28.4303 21.7054 31.6969 15.4178 31.6969H9.63784V16.1414ZM15.704 27.1641C18.0824 27.1641 19.6158 26.1868 19.6158 23.9407V23.8948C19.6158 21.6514 18.0824 20.6714 15.704 20.6714H14.8374V27.1614H15.704V27.1641Z" fill="#0066B2"/>
<path d="M24.505 16.1414H29.9502L32.1504 23.6087L34.6611 16.0982H39.1507L41.6614 23.6087L43.8616 16.1414H50.8916L44.1262 31.8103H39.5934L36.8614 24.0757L34.1266 31.8103H29.5938L24.505 16.1414Z" fill="#0066B2"/>
<path d="M61.8226 52.8083L67.2381 44.7093C69.7056 46.5856 72.3324 47.5521 75.1212 47.5521C79.1437 47.5521 81.2899 45.0306 81.7165 40.4195C79.6242 42.5118 76.7815 43.9048 73.4042 43.9048C67.0221 43.9048 61.6066 39.3451 61.6066 32.2665V32.1585C61.6066 23.201 68.5259 18.0527 77.2134 18.0527C83.0582 18.0527 86.5975 19.821 89.4403 22.6638C92.175 25.3985 93.9973 29.9043 93.9973 36.3403V36.4483C93.9973 48.7831 87.456 57.2034 75.7097 57.2034C69.9729 57.2061 65.5751 55.5458 61.8226 52.8083ZM81.8245 31.6807V31.5727C81.8245 29.1052 80.1075 27.0696 77.64 27.0696C75.1725 27.0696 73.5635 29.0539 73.5635 31.5214V31.6294C73.5635 34.0429 75.2805 35.8652 77.7453 35.8652C80.2101 35.8652 81.8245 33.9862 81.8245 31.6807Z" fill="#0066B2"/>
<path d="M53.0918 18.5954L45.3033 37.3554V56.4016H57.6381V18.5954H53.0918Z" fill="#0066B2"/>
<path d="M6.47382 0.423849L6.47112 0.159281C6.47112 0.0728912 6.54131 0.00269968 6.6277 0.00269968C6.6358 0.00269968 6.6412 0.00269968 6.6493 0.00539935C6.652 0.00539935 6.6547 0.00539935 6.6574 0.00539935C8.70375 0.367156 10.3722 1.83038 11.0282 3.75795C11.0282 3.75795 11.0282 3.75795 11.0282 3.76065C11.0336 3.77685 11.0363 3.79304 11.0363 3.80924C11.0363 3.89563 10.9661 3.96582 10.8797 3.96582C10.8284 3.96582 8.01534 3.96582 7.42951 3.96582C7.42411 3.96582 7.41871 3.96582 7.41331 3.96582C7.40791 3.96582 7.40251 3.96582 7.39981 3.96312C7.39981 3.96312 7.39981 3.96312 7.39711 3.96312C7.34582 3.95232 7.30262 3.91723 7.28372 3.86863L7.01106 3.20451C6.6385 2.21643 6.46572 1.28235 6.47382 0.423849ZM3.24771 5.7989V5.7962C3.25581 5.7773 3.25851 5.75841 3.25851 5.73681C3.25851 5.65042 3.18832 5.58023 3.10193 5.58023H0.156581C0.0701916 5.58023 0 5.65042 0 5.73681C0 5.73951 0 5.73951 0 5.74221C0.0404951 7.16764 0.607427 8.46348 1.51182 9.43806L1.51452 9.44076C1.54421 9.47046 1.58201 9.48666 1.6279 9.48666C1.6927 9.48666 1.74939 9.44616 1.77369 9.38947L3.24771 5.7989ZM8.24211 10.4639C8.24211 10.4612 8.24211 10.4612 8.23941 10.4585L6.46302 6.12826C6.46302 6.12556 6.46032 6.12286 6.46032 6.12286C6.33344 5.8043 6.02298 5.58023 5.66122 5.58023C5.32106 5.58023 5.0268 5.7773 4.88641 6.06617L3.08303 10.4612C3.07493 10.4801 3.07223 10.499 3.07223 10.5206C3.07223 10.58 3.10463 10.6286 3.15052 10.6583C3.15322 10.661 3.15592 10.661 3.15862 10.6637C3.91453 11.0363 4.76493 11.2468 5.66392 11.2468C6.56561 11.2468 7.41331 11.0363 8.16922 10.6637C8.16922 10.6637 8.17192 10.6637 8.17192 10.661C8.22051 10.634 8.25561 10.5827 8.25561 10.5233C8.25561 10.5017 8.25021 10.4828 8.24211 10.4639ZM11.3278 5.74491C11.3278 5.74221 11.3278 5.73951 11.3278 5.73951C11.3278 5.65312 11.2576 5.58293 11.1713 5.58293H8.22591C8.13952 5.58293 8.06933 5.65312 8.06933 5.73951C8.06933 5.76111 8.07473 5.7827 8.08283 5.8016L9.55685 9.39217C9.58115 9.44886 9.63784 9.48936 9.70263 9.48936C9.74583 9.48936 9.78362 9.47316 9.81332 9.44346C9.81602 9.44076 9.81602 9.44076 9.81872 9.43806C10.7204 8.46348 11.2873 7.17034 11.3278 5.74491ZM0.448146 3.96312C0.494041 3.96312 3.3152 3.96312 3.89833 3.96312C3.90103 3.96312 3.90643 3.96312 3.90913 3.96312C3.96852 3.95772 4.01982 3.91993 4.04141 3.86593L4.31408 3.19912C4.68664 2.21643 4.85942 1.28235 4.85132 0.423849V0.156581C4.85402 0.0701916 4.78382 0 4.69744 0C4.68934 0 4.68394 0 4.67584 0.00269968C4.67314 0.00269968 4.67044 0.00269968 4.66774 0.00269968C2.62139 0.364456 0.955685 1.82498 0.299664 3.75255C0.299664 3.75525 0.299664 3.75525 0.299664 3.75525C0.294265 3.77145 0.291565 3.78764 0.291565 3.80384C0.291565 3.89023 0.361757 3.96312 0.448146 3.96312Z" fill="url(#paint0_linear_171_87509)"/>
<path d="M32.3583 5.69092C31.7536 5.69092 31.2811 5.51004 31.0247 5.18338C30.806 4.89451 30.7655 4.51116 30.9167 4.09811C31.076 3.66076 31.354 3.3314 31.8211 3.03174C32.3556 2.68348 32.936 2.5053 33.5462 2.5053C34.1104 2.5053 34.5315 2.69158 34.7313 3.02634L34.8069 3.15052L35.0013 2.61599C35.004 2.61059 35.0094 2.60789 35.0148 2.60789H35.7788C35.7842 2.60789 35.7869 2.61059 35.7896 2.61329C35.7923 2.61599 35.7923 2.62138 35.7923 2.62678C35.6951 2.89675 34.7934 5.36965 34.7178 5.58023C34.7151 5.58563 34.7097 5.58833 34.7043 5.58833H33.9376C33.9322 5.58833 33.9295 5.58563 33.9268 5.58293C33.9241 5.58023 33.9241 5.57483 33.9241 5.56943L33.9295 5.55053C33.9484 5.48574 33.9403 5.42635 33.9079 5.38585C33.8809 5.34806 33.8323 5.32916 33.7783 5.32916C33.7378 5.32916 33.6946 5.33996 33.6515 5.36156C33.6488 5.36156 33.6488 5.36426 33.6461 5.36426C33.2654 5.56403 32.7687 5.69092 32.3583 5.69092ZM33.4868 3.09113C33.0467 3.09113 32.6175 3.23151 32.28 3.48528C32.0451 3.66346 31.8724 3.88483 31.786 4.1224C31.7104 4.33028 31.7212 4.53005 31.8211 4.69474C31.9723 4.9485 32.3151 5.09969 32.7417 5.09969H32.7741C33.206 5.09969 33.6245 4.962 33.9538 4.71633C34.186 4.54085 34.3507 4.32488 34.4371 4.09001C34.5207 3.86054 34.5099 3.64726 34.4074 3.47448C34.2616 3.23151 33.9403 3.09113 33.5219 3.09113H33.5057H33.4868Z" fill="#0066B2"/>
<path d="M44.3179 5.69092C43.7131 5.69092 43.2407 5.51004 42.9869 5.18338C42.7683 4.89451 42.7278 4.50846 42.8789 4.09811C43.0382 3.66076 43.3163 3.3314 43.7833 3.03174C44.3179 2.68348 44.8983 2.5053 45.5084 2.5053C46.0727 2.5053 46.4938 2.69158 46.6936 3.02634L46.7665 3.15052C46.7665 3.15052 46.9177 2.73207 46.9609 2.61599C46.9636 2.61059 46.969 2.60789 46.9744 2.60789H47.7384C47.7438 2.60789 47.7465 2.61059 47.7492 2.61329C47.7519 2.61599 47.7519 2.62138 47.7519 2.62678L46.6774 5.58023C46.6747 5.58563 46.6693 5.58833 46.6639 5.58833H45.8972C45.8918 5.58833 45.8891 5.58563 45.8864 5.58293C45.8837 5.58023 45.8837 5.57483 45.8837 5.56943L45.8891 5.55053C45.908 5.48574 45.8999 5.42635 45.8675 5.38585C45.8405 5.34806 45.7946 5.32916 45.7379 5.32916C45.6974 5.32916 45.6542 5.33996 45.611 5.36156C45.6083 5.36156 45.6083 5.36156 45.6056 5.36156C45.2223 5.56403 44.7282 5.69092 44.3179 5.69092ZM45.4463 3.09113C45.0063 3.09113 44.577 3.23151 44.2396 3.48528C44.0047 3.66346 43.8319 3.88483 43.7455 4.1224C43.6699 4.33028 43.6807 4.53005 43.7806 4.69474C43.9318 4.9485 44.2747 5.09969 44.7012 5.09969H44.7309C45.1629 5.09969 45.5813 4.962 45.9107 4.71633C46.1429 4.54085 46.3075 4.32488 46.3939 4.09001C46.4776 3.86054 46.4668 3.64726 46.3642 3.47448C46.2184 3.23151 45.8972 3.09113 45.4787 3.09113H45.4625H45.4463Z" fill="#0066B2"/>
<path d="M27.534 5.69092C26.9995 5.69092 26.6323 5.56133 26.3461 5.26977C26.1518 5.06459 26.1248 4.71093 26.2759 4.30058C26.2759 4.30058 26.824 2.79956 26.8888 2.61599C26.8915 2.61059 26.8969 2.60789 26.9023 2.60789H27.7419C27.7473 2.60789 27.75 2.61059 27.7527 2.61329C27.7554 2.61599 27.7554 2.62139 27.7554 2.62678L27.2289 4.07111C27.1398 4.31408 27.0669 4.56515 27.1425 4.75143C27.2289 4.9728 27.5124 5.10509 27.8957 5.10509C28.9621 5.10509 29.2456 4.32758 29.3401 4.07111C29.3401 4.07111 29.8314 2.72397 29.8692 2.61869C29.8719 2.61329 29.8773 2.61059 29.8827 2.61059H30.7223C30.7277 2.61059 30.7304 2.61329 30.7331 2.61599C30.7358 2.61869 30.7358 2.62409 30.7358 2.62948C30.6224 2.94265 29.7315 5.38585 29.6613 5.58293C29.6586 5.58833 29.6532 5.59103 29.6478 5.59103H28.9027C28.8973 5.59103 28.8946 5.58833 28.8919 5.58563C28.8892 5.58293 28.8892 5.57753 28.8892 5.57213C28.9081 5.51544 28.9054 5.46144 28.8784 5.42365C28.8541 5.38855 28.8163 5.37235 28.7677 5.37235C28.7326 5.37235 28.6975 5.38045 28.6598 5.39935C28.2359 5.63962 27.8148 5.69092 27.534 5.69092Z" fill="#0066B2"/>
<path d="M38.5379 5.58833C38.5325 5.58833 38.5298 5.58563 38.5271 5.58293C38.5244 5.58023 38.5244 5.57483 38.5244 5.56943C38.6 5.36156 39.0508 4.1251 39.0508 4.1251C39.1399 3.88213 39.2128 3.63106 39.1372 3.44479C39.0481 3.22341 38.7673 3.09113 38.384 3.09113C37.3176 3.09113 37.0341 3.86864 36.9397 4.1251L36.4105 5.58023C36.4078 5.58563 36.4024 5.58833 36.397 5.58833H35.5574C35.552 5.58833 35.5493 5.58563 35.5466 5.58293C35.5439 5.58023 35.5439 5.57483 35.5439 5.56943C35.5439 5.56943 36.5563 2.78607 36.6184 2.61599C36.6211 2.61059 36.6265 2.60789 36.6319 2.60789H37.377C37.3824 2.60789 37.3851 2.61059 37.3878 2.61329C37.3905 2.61599 37.3905 2.62139 37.3905 2.62679C37.3716 2.68348 37.3743 2.73747 37.4013 2.77527C37.4256 2.80766 37.4634 2.82656 37.512 2.82656C37.5471 2.82656 37.5822 2.81846 37.62 2.79956C38.0384 2.55929 38.4623 2.508 38.7403 2.508C39.2749 2.508 39.642 2.63758 39.9282 2.92915C40.1226 3.13432 40.1496 3.48798 39.9984 3.89833C39.9984 3.89833 39.4504 5.39935 39.3856 5.58293C39.3829 5.58833 39.3775 5.59103 39.3721 5.59103H38.5379V5.58833Z" fill="#0066B2"/>
<path d="M40.5194 5.58833C40.514 5.58833 40.5113 5.58563 40.5086 5.58293C40.5059 5.58023 40.5059 5.57483 40.5059 5.56943C40.6004 5.31026 41.3968 3.12622 41.3968 3.12622H40.919C40.9136 3.12622 40.9109 3.12352 40.9082 3.12083C40.9055 3.11813 40.9055 3.11273 40.9055 3.10733L41.0837 2.61599C41.0864 2.61059 41.0918 2.60789 41.0972 2.60789H41.5858C41.5858 2.60789 41.9071 1.72779 41.9638 1.57121C41.9665 1.56581 41.9719 1.56311 41.9773 1.56311H42.8277C42.8331 1.56311 42.8357 1.56581 42.8384 1.56851C42.8411 1.57121 42.8411 1.57661 42.8411 1.58201L42.4686 2.60789H43.0625C43.0679 2.60789 43.0706 2.61059 43.0733 2.61329C43.076 2.61599 43.076 2.62138 43.076 2.62678L42.8978 3.11813C42.8951 3.12352 42.8897 3.12622 42.8843 3.12622H42.2823C42.2823 3.12622 41.4643 5.37235 41.3887 5.58023C41.386 5.58563 41.3806 5.58833 41.3752 5.58833H40.5194V5.58833Z" fill="#0066B2"/>
<path d="M22.8447 5.58833C22.8393 5.58833 22.8366 5.58563 22.8339 5.58293C22.8312 5.58023 22.8312 5.57483 22.8312 5.56943C22.9067 5.36156 23.3684 4.09541 23.3684 4.09541C23.3684 4.09541 22.5693 2.25963 22.3263 1.7035C22.3209 1.69 22.3182 1.6765 22.3182 1.663C22.3182 1.60631 22.3641 1.56311 22.4181 1.56311H23.363C23.3684 1.56311 23.3738 1.56581 23.3765 1.57121C23.4143 1.663 23.7004 2.30552 23.965 2.90215L23.9677 2.90485C24.0136 3.01554 24.1216 3.08033 24.2593 3.08033C24.3835 3.08033 24.5185 3.02904 24.6372 2.93725C25.3823 2.30282 26.168 1.6306 26.2408 1.56851C26.2435 1.56581 26.2462 1.56581 26.2489 1.56581H27.0723C27.129 1.56581 27.1722 1.61171 27.1722 1.6657C27.1722 1.6954 27.1587 1.72239 27.1344 1.74399C27.1344 1.74399 27.1344 1.74669 27.1317 1.74669L24.3916 4.10081C24.3916 4.10081 23.9164 5.40745 23.8516 5.58563C23.8489 5.59103 23.8435 5.59373 23.8381 5.59373H22.8447V5.58833Z" fill="#0066B2"/>
<path d="M35.0067 9.61354C35.0013 9.61354 34.9986 9.61084 34.9959 9.60814C34.9932 9.60545 34.9932 9.60005 34.9932 9.59465L36.0704 6.6412C36.0731 6.6358 36.0785 6.6331 36.0839 6.6331H36.9127C36.9181 6.6331 36.9208 6.6358 36.9235 6.6385C36.9262 6.6412 36.9262 6.6466 36.9235 6.652L36.8317 6.90577H36.8479C37.1664 6.6439 37.4769 6.53321 37.8899 6.53321H37.9466C37.952 6.53321 37.9547 6.53591 37.9574 6.53861C37.9601 6.54131 37.9601 6.54671 37.9601 6.55211L37.7118 7.22973C37.7091 7.23513 37.7037 7.23783 37.6983 7.23783C37.4796 7.24053 37.2258 7.29452 37.0395 7.38091C36.6994 7.54559 36.6049 7.76157 36.5158 8.02613L35.9408 9.60275C35.9381 9.60814 35.9327 9.61084 35.9273 9.61084H35.0067V9.61354Z" fill="#0066B2"/>
<path d="M37.7415 9.61354C37.7361 9.61354 37.7334 9.61084 37.7307 9.60814C37.728 9.60545 37.728 9.60005 37.728 9.59465C37.8252 9.32468 38.7268 6.85178 38.8024 6.6412C38.8051 6.6358 38.8105 6.6331 38.8159 6.6331H39.6663C39.6717 6.6331 39.6744 6.6358 39.6771 6.6385C39.6798 6.6412 39.6798 6.6466 39.6798 6.652C39.6204 6.81668 38.6027 9.60545 38.6027 9.60545C38.6 9.61084 38.5946 9.61354 38.5892 9.61354H37.7415Z" fill="#0066B2"/>
<path d="M42.285 9.61354C42.2796 9.61354 42.2769 9.61084 42.2742 9.60814C42.2715 9.60545 42.2715 9.60005 42.2715 9.59465C42.3687 9.32468 43.2704 6.85178 43.346 6.6412C43.3487 6.6358 43.3541 6.6331 43.3595 6.6331H44.2099C44.2153 6.6331 44.218 6.6358 44.2207 6.6385C44.2234 6.6412 44.2234 6.6466 44.2234 6.652C44.1262 6.92197 43.2245 9.39487 43.1489 9.60545C43.1462 9.61084 43.1408 9.61354 43.1354 9.61354H42.285Z" fill="#0066B2"/>
<path d="M31.9912 9.71613C31.4566 9.71613 31.0895 9.58655 30.806 9.29498C30.6116 9.08981 30.5846 8.73615 30.7358 8.3258C30.7358 8.3258 31.2838 6.82478 31.3486 6.6412C31.3513 6.6358 31.3567 6.6331 31.3621 6.6331H32.2017C32.2071 6.6331 32.2098 6.6358 32.2125 6.6385C32.2152 6.6412 32.2152 6.6466 32.2152 6.652L31.6888 8.09633C31.5997 8.3393 31.5295 8.59037 31.6024 8.77664C31.6915 8.99802 31.9723 9.1303 32.3556 9.1303C33.422 9.1303 33.7054 8.3528 33.7999 8.09633L34.3291 6.6439C34.3318 6.6385 34.3372 6.6358 34.3426 6.6358H35.1822C35.1876 6.6358 35.1903 6.6385 35.193 6.6412C35.1957 6.6439 35.1957 6.6493 35.1957 6.6547C35.1039 6.90847 34.1212 9.60814 34.1212 9.60814C34.1185 9.61354 34.1131 9.61624 34.1077 9.61624H33.3626C33.3572 9.61624 33.3545 9.61354 33.3518 9.61084C33.3491 9.60814 33.3491 9.60275 33.3491 9.59735C33.368 9.54065 33.3626 9.48666 33.3383 9.44886C33.314 9.41377 33.2762 9.39757 33.2276 9.39757C33.1925 9.39757 33.1574 9.40567 33.1196 9.42457C32.6931 9.66484 32.2719 9.71613 31.9912 9.71613Z" fill="#0066B2"/>
<path d="M22.6368 9.71613C21.9781 9.71613 21.4192 9.48126 21.1439 9.08711C20.9441 8.80094 20.9063 8.46348 21.0359 8.10982C21.3652 7.20273 22.6044 6.49272 23.857 6.49272C24.5212 6.49272 25.0584 6.71679 25.3284 7.10554C25.5308 7.39441 25.5659 7.74267 25.4309 8.10982C25.4282 8.12062 25.4228 8.12872 25.4201 8.13952C25.4201 8.13952 25.4201 8.14222 25.4174 8.14222C25.4039 8.17462 25.3742 8.19621 25.3392 8.19891C25.3365 8.19891 25.3311 8.20161 25.3284 8.20161H23.255C23.1308 8.20161 23.0282 8.15842 22.9634 8.07473C22.8932 7.98564 22.869 7.86145 22.9013 7.72377C22.9013 7.72107 22.9013 7.71837 22.904 7.71567C22.9148 7.66978 22.9553 7.64008 23.0012 7.64008H23.0039H24.5212C24.4132 7.32962 24.0514 7.13524 23.5763 7.13524C23.2604 7.13524 22.8689 7.25133 22.5774 7.42951C22.2723 7.60768 22.059 7.84256 21.9619 8.10982C21.8782 8.3393 21.8998 8.54987 22.0186 8.72265C22.1751 8.94672 22.4856 9.07361 22.869 9.07361C23.3117 9.07361 23.7517 8.92243 24.0838 8.66056C24.0865 8.65786 24.0892 8.65786 24.0919 8.65786H24.8559C24.9126 8.65786 24.9585 8.70375 24.9585 8.75775C24.9585 8.77934 24.9504 8.80364 24.9369 8.81984L24.9315 8.82524C24.9315 8.82794 24.9288 8.82794 24.9288 8.83064C24.3511 9.37597 23.4737 9.71613 22.6368 9.71613Z" fill="#0066B2"/>
<path d="M45.9377 9.71613C45.279 9.71613 44.7201 9.48126 44.4448 9.08711C44.245 8.80094 44.2072 8.46348 44.3341 8.10982C44.6634 7.20273 45.9026 6.49272 47.1552 6.49272C47.8193 6.49272 48.3539 6.71679 48.6265 7.10554C48.829 7.39441 48.8641 7.74267 48.7291 8.10982C48.7264 8.12062 48.721 8.12872 48.7183 8.13952C48.7183 8.13952 48.7183 8.14222 48.7156 8.14222C48.7021 8.17462 48.6724 8.19621 48.6374 8.19891C48.6347 8.19891 48.6292 8.20161 48.6265 8.20161H46.5532C46.429 8.20161 46.3264 8.15842 46.2616 8.07473C46.1914 7.98564 46.1671 7.86145 46.1995 7.72377C46.1995 7.72107 46.1995 7.71837 46.2022 7.71567C46.213 7.66978 46.2535 7.64008 46.2994 7.64008H46.3021H47.8193C47.7114 7.32962 47.3496 7.13524 46.8772 7.13524C46.5613 7.13524 46.1698 7.25133 45.8783 7.42951C45.5732 7.60768 45.3599 7.84256 45.2628 8.10982C45.1791 8.3393 45.198 8.54987 45.3194 8.72265C45.476 8.94672 45.7838 9.07361 46.1698 9.07361C46.6099 9.07361 47.0526 8.92243 47.3847 8.66056C47.3874 8.65786 47.3901 8.65786 47.3928 8.65786H48.1568C48.2135 8.65786 48.2594 8.70375 48.2594 8.75775C48.2594 8.77934 48.2513 8.80364 48.2378 8.81984L48.2324 8.82524C48.2324 8.82794 48.2297 8.82794 48.2297 8.83064C47.6493 9.37597 46.7719 9.71613 45.9377 9.71613Z" fill="#0066B2"/>
<path d="M27.5448 9.71613C26.9833 9.71613 26.4703 9.54605 26.1734 9.25989C25.8575 8.96292 25.7738 8.54987 25.9358 8.10172C26.2516 7.23513 27.4908 6.53051 28.6976 6.53051C29.4994 6.53051 30.1473 6.87877 30.3039 7.39441V7.39711C30.3066 7.40791 30.3066 7.41601 30.3066 7.42411C30.3066 7.4754 30.2661 7.51859 30.2148 7.52399C30.2121 7.52399 30.2094 7.52399 30.2067 7.52399H29.3347C29.3293 7.52399 29.3239 7.52129 29.3212 7.5159C29.1862 7.24593 28.9054 7.11634 28.4654 7.11634C27.7149 7.11634 27.0184 7.53479 26.8078 8.10982C26.716 8.35819 26.7349 8.58497 26.8591 8.76314C27.0237 8.99802 27.3531 9.1276 27.7851 9.1276C28.1549 9.1276 28.5734 8.98182 28.873 8.74695C28.8757 8.74425 28.8784 8.74425 28.8811 8.74425H29.6343C29.6397 8.74425 29.6451 8.74425 29.6505 8.74695C29.6991 8.75505 29.7342 8.79554 29.7342 8.84684C29.7342 8.87113 29.7261 8.89543 29.7072 8.91433V8.91703C29.7072 8.91703 29.7072 8.91973 29.7045 8.91973C29.7045 8.92243 29.7018 8.92243 29.7018 8.92243C29.1565 9.40297 28.3088 9.71613 27.5448 9.71613Z" fill="#0066B2"/>
<path d="M17.5425 9.71613C17.286 9.71613 17.0242 9.69993 16.765 9.67024C16.4923 9.63514 16.2412 9.58385 15.9983 9.50556C15.9956 9.50286 15.9929 9.50286 15.9902 9.49746C15.9875 9.49476 15.9875 9.48936 15.9902 9.48666L16.1657 9.00342C16.1819 8.96562 16.2196 8.94132 16.2601 8.94132C16.2682 8.94132 16.2763 8.94133 16.2871 8.94402H16.2898C16.5274 9.01152 16.7569 9.06551 16.9648 9.10061C17.1969 9.1411 17.4291 9.16 17.6505 9.16C18.0284 9.16 18.3524 9.1087 18.6116 9.00882C18.868 8.90893 19.0273 8.77934 19.0867 8.61736C19.1731 8.38249 18.841 8.10443 18.104 7.79126L17.9069 7.70217C17.4264 7.5024 17.0997 7.31342 16.9432 7.13794C16.7839 6.96246 16.7407 6.76269 16.8217 6.54401C16.9378 6.22815 17.2617 5.96088 17.7882 5.75301C18.3119 5.54513 18.9112 5.43985 19.5699 5.43985C19.8588 5.43985 20.1342 5.45604 20.3906 5.48844C20.6606 5.52354 20.9036 5.57213 21.1277 5.64232C21.1304 5.64232 21.1331 5.64502 21.1358 5.65042C21.1385 5.65312 21.1385 5.65852 21.1358 5.66122L20.9738 6.11207C20.9738 6.11207 20.9738 6.11476 20.9711 6.11476C20.9576 6.15526 20.9198 6.18226 20.8766 6.18226C20.8685 6.18226 20.8604 6.18226 20.8496 6.17956H20.8469C20.6579 6.12286 20.4635 6.07967 20.2719 6.04997C20.0559 6.01488 19.8318 5.99868 19.605 5.99868C19.2136 5.99868 18.8734 6.04997 18.6035 6.14986C18.3335 6.24975 18.1661 6.38203 18.1067 6.54671C18.023 6.77889 18.3794 7.05695 19.165 7.37551C19.2109 7.39441 19.3324 7.43761 19.3378 7.44031C19.7994 7.63468 20.1153 7.82366 20.2746 7.99914C20.4338 8.17462 20.4743 8.38249 20.3879 8.61466C20.2719 8.93593 19.9398 9.20319 19.408 9.40837C18.8788 9.61354 18.2525 9.71613 17.5425 9.71613Z" fill="#0066B2"/>
<path d="M39.9336 9.61355C39.9282 9.61355 39.9255 9.61085 39.9228 9.60815C39.9201 9.60545 39.9201 9.60005 39.9201 9.59465C40.0146 9.33548 40.811 7.15144 40.811 7.15144H40.3331C40.3277 7.15144 40.3251 7.14874 40.3224 7.14604C40.3197 7.14334 40.3197 7.13794 40.3197 7.13254L40.4978 6.6412C40.5005 6.6358 40.5059 6.6331 40.5113 6.6331H41C41 6.6331 41.3212 5.75301 41.3779 5.59643C41.3806 5.59103 41.386 5.58833 41.3914 5.58833H42.2418C42.2472 5.58833 42.2499 5.59103 42.2526 5.59373C42.2553 5.59643 42.2553 5.60183 42.2553 5.60723L41.8828 6.6331H42.4767C42.4821 6.6331 42.4848 6.6358 42.4875 6.6385C42.4902 6.6412 42.4902 6.6466 42.4902 6.652L42.3093 7.14334C42.3066 7.14874 42.3012 7.15144 42.2958 7.15144H41.6938C41.6938 7.15144 40.8758 9.39487 40.8002 9.60545C40.7975 9.61085 40.7921 9.61355 40.7867 9.61355H39.9336Z" fill="#0066B2"/>
<path d="M49.9008 9.71613C49.6983 9.71613 49.4877 9.70533 49.2799 9.68374C49.0747 9.66214 48.8668 9.63514 48.6643 9.60005C48.6589 9.60005 48.6562 9.59735 48.6562 9.59465C48.6535 9.59195 48.6535 9.58655 48.6535 9.58385L48.8263 9.1141C48.8263 9.1141 48.8263 9.11141 48.829 9.11141C48.8425 9.07091 48.8803 9.04391 48.9235 9.04391C48.9343 9.04391 48.9451 9.04661 48.9586 9.04931H48.9613C49.0963 9.10061 49.2367 9.1384 49.3744 9.1654C49.5471 9.20049 49.7361 9.21669 49.9305 9.21669C50.214 9.21669 50.4623 9.1816 50.6675 9.10871C50.8727 9.03851 50.9969 8.94672 51.0374 8.83604C51.086 8.70375 50.897 8.53637 50.4785 8.3366C50.4272 8.3123 50.3813 8.2907 50.3516 8.27181C49.9386 8.08283 49.6686 7.92355 49.5498 7.79936C49.4284 7.67248 49.396 7.53479 49.4527 7.38091C49.5471 7.12444 49.8171 6.91117 50.2545 6.74649C50.6945 6.58181 51.2236 6.49812 51.8257 6.49812C52.0254 6.49812 52.2198 6.50892 52.4034 6.53052C52.5816 6.54941 52.7598 6.57911 52.9298 6.6196C52.9352 6.6196 52.9379 6.6223 52.9379 6.6277C52.9406 6.6304 52.9406 6.6358 52.9379 6.6385L52.7706 7.09475C52.7544 7.13524 52.7166 7.16224 52.6761 7.16224C52.6626 7.16224 52.6464 7.15954 52.6329 7.15144H52.6302C52.5357 7.10825 52.4277 7.07315 52.3116 7.04885C52.1523 7.01376 51.958 6.99756 51.7339 6.99756C51.4855 6.99756 51.2641 7.02996 51.0806 7.09745C50.8943 7.16224 50.7809 7.24863 50.7431 7.35392C50.6918 7.4916 50.8673 7.65088 51.2776 7.83716C51.3694 7.88035 51.4234 7.90195 51.4585 7.91545C51.8419 8.08823 52.0983 8.24481 52.2198 8.38519C52.3413 8.52288 52.3737 8.67946 52.3116 8.84684C52.2171 9.10871 51.9472 9.32198 51.5098 9.47856C51.0779 9.63514 50.5325 9.71613 49.9008 9.71613Z" fill="#0066B2"/>
<path d="M9.63784 16.1414H15.5933C21.7729 16.1414 24.8613 19.1866 24.8613 23.7868V23.83C24.8613 28.4303 21.7054 31.6969 15.4178 31.6969H9.63784V16.1414ZM15.704 27.1641C18.0824 27.1641 19.6158 26.1868 19.6158 23.9407V23.8948C19.6158 21.6514 18.0824 20.6714 15.704 20.6714H14.8374V27.1614H15.704V27.1641Z" fill="#0066B3"/>
<path d="M24.505 16.1414H29.9502L32.1504 23.6087L34.6611 16.0982H39.1507L41.6614 23.6087L43.8616 16.1414H50.8916L44.1262 31.8103H39.5934L36.8614 24.0757L34.1266 31.8103H29.5938L24.505 16.1414Z" fill="#0066B3"/>
<path d="M61.8226 52.8083L67.2381 44.7093C69.7056 46.5856 72.3324 47.5521 75.1212 47.5521C79.1437 47.5521 81.2899 45.0306 81.7165 40.4195C79.6242 42.5118 76.7815 43.9048 73.4042 43.9048C67.0221 43.9048 61.6066 39.3451 61.6066 32.2665V32.1585C61.6066 23.201 68.5259 18.0527 77.2134 18.0527C83.0582 18.0527 86.5975 19.821 89.4403 22.6638C92.175 25.3985 93.9973 29.9043 93.9973 36.3403V36.4483C93.9973 48.7831 87.456 57.2034 75.7097 57.2034C69.9729 57.2061 65.5751 55.5458 61.8226 52.8083ZM81.8245 31.6807V31.5727C81.8245 29.1052 80.1075 27.0696 77.64 27.0696C75.1725 27.0696 73.5635 29.0539 73.5635 31.5214V31.6294C73.5635 34.0429 75.2805 35.8652 77.7453 35.8652C80.2101 35.8652 81.8245 33.9862 81.8245 31.6807Z" fill="#0066B3"/>
<path d="M53.0918 18.5954L45.3033 37.3554V56.4016H57.6381V18.5954H53.0918Z" fill="#0066B3"/>
<path d="M6.47382 0.423849L6.47112 0.159281C6.47112 0.0728912 6.54131 0.00269968 6.6277 0.00269968C6.6358 0.00269968 6.6412 0.00269968 6.6493 0.00539935C6.652 0.00539935 6.6547 0.00539935 6.6574 0.00539935C8.70375 0.367156 10.3722 1.83038 11.0282 3.75795C11.0282 3.75795 11.0282 3.75795 11.0282 3.76065C11.0336 3.77685 11.0363 3.79304 11.0363 3.80924C11.0363 3.89563 10.9661 3.96582 10.8797 3.96582C10.8284 3.96582 8.01534 3.96582 7.42951 3.96582C7.42411 3.96582 7.41871 3.96582 7.41331 3.96582C7.40791 3.96582 7.40251 3.96582 7.39981 3.96312C7.39981 3.96312 7.39981 3.96312 7.39711 3.96312C7.34582 3.95232 7.30262 3.91723 7.28372 3.86863L7.01106 3.20451C6.6385 2.21643 6.46572 1.28235 6.47382 0.423849ZM3.24771 5.7989V5.7962C3.25581 5.7773 3.25851 5.75841 3.25851 5.73681C3.25851 5.65042 3.18832 5.58023 3.10193 5.58023H0.156581C0.0701916 5.58023 0 5.65042 0 5.73681C0 5.73951 0 5.73951 0 5.74221C0.0404951 7.16764 0.607427 8.46348 1.51182 9.43806L1.51452 9.44076C1.54421 9.47046 1.58201 9.48666 1.6279 9.48666C1.6927 9.48666 1.74939 9.44616 1.77369 9.38947L3.24771 5.7989ZM8.24211 10.4639C8.24211 10.4612 8.24211 10.4612 8.23941 10.4585L6.46302 6.12826C6.46302 6.12556 6.46032 6.12286 6.46032 6.12286C6.33344 5.8043 6.02298 5.58023 5.66122 5.58023C5.32106 5.58023 5.0268 5.7773 4.88641 6.06617L3.08303 10.4612C3.07493 10.4801 3.07223 10.499 3.07223 10.5206C3.07223 10.58 3.10463 10.6286 3.15052 10.6583C3.15322 10.661 3.15592 10.661 3.15862 10.6637C3.91453 11.0363 4.76493 11.2468 5.66392 11.2468C6.56561 11.2468 7.41331 11.0363 8.16922 10.6637C8.16922 10.6637 8.17192 10.6637 8.17192 10.661C8.22051 10.634 8.25561 10.5827 8.25561 10.5233C8.25561 10.5017 8.25021 10.4828 8.24211 10.4639ZM11.3278 5.74491C11.3278 5.74221 11.3278 5.73951 11.3278 5.73951C11.3278 5.65312 11.2576 5.58293 11.1713 5.58293H8.22591C8.13952 5.58293 8.06933 5.65312 8.06933 5.73951C8.06933 5.76111 8.07473 5.7827 8.08283 5.8016L9.55685 9.39217C9.58115 9.44886 9.63784 9.48936 9.70263 9.48936C9.74583 9.48936 9.78362 9.47316 9.81332 9.44346C9.81602 9.44076 9.81602 9.44076 9.81872 9.43806C10.7204 8.46348 11.2873 7.17034 11.3278 5.74491ZM0.448146 3.96312C0.494041 3.96312 3.3152 3.96312 3.89833 3.96312C3.90103 3.96312 3.90643 3.96312 3.90913 3.96312C3.96852 3.95772 4.01982 3.91993 4.04141 3.86593L4.31408 3.19912C4.68664 2.21643 4.85942 1.28235 4.85132 0.423849V0.156581C4.85402 0.0701916 4.78382 0 4.69744 0C4.68934 0 4.68394 0 4.67584 0.00269968C4.67314 0.00269968 4.67044 0.00269968 4.66774 0.00269968C2.62139 0.364456 0.955685 1.82498 0.299664 3.75255C0.299664 3.75525 0.299664 3.75525 0.299664 3.75525C0.294265 3.77145 0.291565 3.78764 0.291565 3.80384C0.291565 3.89023 0.361757 3.96312 0.448146 3.96312Z" fill="url(#paint1_linear_171_87509)"/>
<path d="M32.3583 5.69092C31.7536 5.69092 31.2811 5.51004 31.0247 5.18338C30.806 4.89451 30.7655 4.51116 30.9167 4.09811C31.076 3.66076 31.354 3.3314 31.8211 3.03174C32.3556 2.68348 32.936 2.5053 33.5462 2.5053C34.1104 2.5053 34.5315 2.69158 34.7313 3.02634L34.8069 3.15052L35.0013 2.61599C35.004 2.61059 35.0094 2.60789 35.0148 2.60789H35.7788C35.7842 2.60789 35.7869 2.61059 35.7896 2.61329C35.7923 2.61599 35.7923 2.62138 35.7923 2.62678C35.6951 2.89675 34.7934 5.36965 34.7178 5.58023C34.7151 5.58563 34.7097 5.58833 34.7043 5.58833H33.9376C33.9322 5.58833 33.9295 5.58563 33.9268 5.58293C33.9241 5.58023 33.9241 5.57483 33.9241 5.56943L33.9295 5.55053C33.9484 5.48574 33.9403 5.42635 33.9079 5.38585C33.8809 5.34806 33.8323 5.32916 33.7783 5.32916C33.7378 5.32916 33.6946 5.33996 33.6515 5.36156C33.6488 5.36156 33.6488 5.36426 33.6461 5.36426C33.2654 5.56403 32.7687 5.69092 32.3583 5.69092ZM33.4868 3.09113C33.0467 3.09113 32.6175 3.23151 32.28 3.48528C32.0451 3.66346 31.8724 3.88483 31.786 4.1224C31.7104 4.33028 31.7212 4.53005 31.8211 4.69474C31.9723 4.9485 32.3151 5.09969 32.7417 5.09969H32.7741C33.206 5.09969 33.6245 4.962 33.9538 4.71633C34.186 4.54085 34.3507 4.32488 34.4371 4.09001C34.5207 3.86054 34.5099 3.64726 34.4074 3.47448C34.2616 3.23151 33.9403 3.09113 33.5219 3.09113H33.5057H33.4868Z" fill="#0066B3"/>
<path d="M44.3179 5.69092C43.7131 5.69092 43.2407 5.51004 42.9869 5.18338C42.7683 4.89451 42.7278 4.50846 42.8789 4.09811C43.0382 3.66076 43.3163 3.3314 43.7833 3.03174C44.3179 2.68348 44.8983 2.5053 45.5084 2.5053C46.0727 2.5053 46.4938 2.69158 46.6936 3.02634L46.7665 3.15052C46.7665 3.15052 46.9177 2.73207 46.9609 2.61599C46.9636 2.61059 46.969 2.60789 46.9744 2.60789H47.7384C47.7438 2.60789 47.7465 2.61059 47.7492 2.61329C47.7519 2.61599 47.7519 2.62138 47.7519 2.62678L46.6774 5.58023C46.6747 5.58563 46.6693 5.58833 46.6639 5.58833H45.8972C45.8918 5.58833 45.8891 5.58563 45.8864 5.58293C45.8837 5.58023 45.8837 5.57483 45.8837 5.56943L45.8891 5.55053C45.908 5.48574 45.8999 5.42635 45.8675 5.38585C45.8405 5.34806 45.7946 5.32916 45.7379 5.32916C45.6974 5.32916 45.6542 5.33996 45.611 5.36156C45.6083 5.36156 45.6083 5.36156 45.6056 5.36156C45.2223 5.56403 44.7282 5.69092 44.3179 5.69092ZM45.4463 3.09113C45.0063 3.09113 44.577 3.23151 44.2396 3.48528C44.0047 3.66346 43.8319 3.88483 43.7455 4.1224C43.6699 4.33028 43.6807 4.53005 43.7806 4.69474C43.9318 4.9485 44.2747 5.09969 44.7012 5.09969H44.7309C45.1629 5.09969 45.5813 4.962 45.9107 4.71633C46.1429 4.54085 46.3075 4.32488 46.3939 4.09001C46.4776 3.86054 46.4668 3.64726 46.3642 3.47448C46.2184 3.23151 45.8972 3.09113 45.4787 3.09113H45.4625H45.4463Z" fill="#0066B3"/>
<path d="M27.534 5.69092C26.9995 5.69092 26.6323 5.56133 26.3461 5.26977C26.1518 5.06459 26.1248 4.71093 26.2759 4.30058C26.2759 4.30058 26.824 2.79956 26.8888 2.61599C26.8915 2.61059 26.8969 2.60789 26.9023 2.60789H27.7419C27.7473 2.60789 27.75 2.61059 27.7527 2.61329C27.7554 2.61599 27.7554 2.62139 27.7554 2.62678L27.2289 4.07111C27.1398 4.31408 27.0669 4.56515 27.1425 4.75143C27.2289 4.9728 27.5124 5.10509 27.8957 5.10509C28.9621 5.10509 29.2456 4.32758 29.3401 4.07111C29.3401 4.07111 29.8314 2.72397 29.8692 2.61869C29.8719 2.61329 29.8773 2.61059 29.8827 2.61059H30.7223C30.7277 2.61059 30.7304 2.61329 30.7331 2.61599C30.7358 2.61869 30.7358 2.62409 30.7358 2.62948C30.6224 2.94265 29.7315 5.38585 29.6613 5.58293C29.6586 5.58833 29.6532 5.59103 29.6478 5.59103H28.9027C28.8973 5.59103 28.8946 5.58833 28.8919 5.58563C28.8892 5.58293 28.8892 5.57753 28.8892 5.57213C28.9081 5.51544 28.9054 5.46144 28.8784 5.42365C28.8541 5.38855 28.8163 5.37235 28.7677 5.37235C28.7326 5.37235 28.6975 5.38045 28.6598 5.39935C28.2359 5.63962 27.8148 5.69092 27.534 5.69092Z" fill="#0066B3"/>
<path d="M38.5379 5.58833C38.5325 5.58833 38.5298 5.58563 38.5271 5.58293C38.5244 5.58023 38.5244 5.57483 38.5244 5.56943C38.6 5.36156 39.0508 4.1251 39.0508 4.1251C39.1399 3.88213 39.2128 3.63106 39.1372 3.44479C39.0481 3.22341 38.7673 3.09113 38.384 3.09113C37.3176 3.09113 37.0341 3.86864 36.9397 4.1251L36.4105 5.58023C36.4078 5.58563 36.4024 5.58833 36.397 5.58833H35.5574C35.552 5.58833 35.5493 5.58563 35.5466 5.58293C35.5439 5.58023 35.5439 5.57483 35.5439 5.56943C35.5439 5.56943 36.5563 2.78607 36.6184 2.61599C36.6211 2.61059 36.6265 2.60789 36.6319 2.60789H37.377C37.3824 2.60789 37.3851 2.61059 37.3878 2.61329C37.3905 2.61599 37.3905 2.62139 37.3905 2.62679C37.3716 2.68348 37.3743 2.73747 37.4013 2.77527C37.4256 2.80766 37.4634 2.82656 37.512 2.82656C37.5471 2.82656 37.5822 2.81846 37.62 2.79956C38.0384 2.55929 38.4623 2.508 38.7403 2.508C39.2749 2.508 39.642 2.63758 39.9282 2.92915C40.1226 3.13432 40.1496 3.48798 39.9984 3.89833C39.9984 3.89833 39.4504 5.39935 39.3856 5.58293C39.3829 5.58833 39.3775 5.59103 39.3721 5.59103H38.5379V5.58833Z" fill="#0066B3"/>
<path d="M40.5194 5.58833C40.514 5.58833 40.5113 5.58563 40.5086 5.58293C40.5059 5.58023 40.5059 5.57483 40.5059 5.56943C40.6004 5.31026 41.3968 3.12622 41.3968 3.12622H40.919C40.9136 3.12622 40.9109 3.12352 40.9082 3.12083C40.9055 3.11813 40.9055 3.11273 40.9055 3.10733L41.0837 2.61599C41.0864 2.61059 41.0918 2.60789 41.0972 2.60789H41.5858C41.5858 2.60789 41.9071 1.72779 41.9638 1.57121C41.9665 1.56581 41.9719 1.56311 41.9773 1.56311H42.8277C42.8331 1.56311 42.8357 1.56581 42.8384 1.56851C42.8411 1.57121 42.8411 1.57661 42.8411 1.58201L42.4686 2.60789H43.0625C43.0679 2.60789 43.0706 2.61059 43.0733 2.61329C43.076 2.61599 43.076 2.62138 43.076 2.62678L42.8978 3.11813C42.8951 3.12352 42.8897 3.12622 42.8843 3.12622H42.2823C42.2823 3.12622 41.4643 5.37235 41.3887 5.58023C41.386 5.58563 41.3806 5.58833 41.3752 5.58833H40.5194V5.58833Z" fill="#0066B3"/>
<path d="M22.8447 5.58833C22.8393 5.58833 22.8366 5.58563 22.8339 5.58293C22.8312 5.58023 22.8312 5.57483 22.8312 5.56943C22.9067 5.36156 23.3684 4.09541 23.3684 4.09541C23.3684 4.09541 22.5693 2.25963 22.3263 1.7035C22.3209 1.69 22.3182 1.6765 22.3182 1.663C22.3182 1.60631 22.3641 1.56311 22.4181 1.56311H23.363C23.3684 1.56311 23.3738 1.56581 23.3765 1.57121C23.4143 1.663 23.7004 2.30552 23.965 2.90215L23.9677 2.90485C24.0136 3.01554 24.1216 3.08033 24.2593 3.08033C24.3835 3.08033 24.5185 3.02904 24.6372 2.93725C25.3823 2.30282 26.168 1.6306 26.2408 1.56851C26.2435 1.56581 26.2462 1.56581 26.2489 1.56581H27.0723C27.129 1.56581 27.1722 1.61171 27.1722 1.6657C27.1722 1.6954 27.1587 1.72239 27.1344 1.74399C27.1344 1.74399 27.1344 1.74669 27.1317 1.74669L24.3916 4.10081C24.3916 4.10081 23.9164 5.40745 23.8516 5.58563C23.8489 5.59103 23.8435 5.59373 23.8381 5.59373H22.8447V5.58833Z" fill="#0066B3"/>
<path d="M35.0067 9.61354C35.0013 9.61354 34.9986 9.61084 34.9959 9.60814C34.9932 9.60545 34.9932 9.60005 34.9932 9.59465L36.0704 6.6412C36.0731 6.6358 36.0785 6.6331 36.0839 6.6331H36.9127C36.9181 6.6331 36.9208 6.6358 36.9235 6.6385C36.9262 6.6412 36.9262 6.6466 36.9235 6.652L36.8317 6.90577H36.8479C37.1664 6.6439 37.4769 6.53321 37.8899 6.53321H37.9466C37.952 6.53321 37.9547 6.53591 37.9574 6.53861C37.9601 6.54131 37.9601 6.54671 37.9601 6.55211L37.7118 7.22973C37.7091 7.23513 37.7037 7.23783 37.6983 7.23783C37.4796 7.24053 37.2258 7.29452 37.0395 7.38091C36.6994 7.54559 36.6049 7.76157 36.5158 8.02613L35.9408 9.60275C35.9381 9.60814 35.9327 9.61084 35.9273 9.61084H35.0067V9.61354Z" fill="#0066B3"/>
<path d="M37.7415 9.61354C37.7361 9.61354 37.7334 9.61084 37.7307 9.60814C37.728 9.60545 37.728 9.60005 37.728 9.59465C37.8252 9.32468 38.7268 6.85178 38.8024 6.6412C38.8051 6.6358 38.8105 6.6331 38.8159 6.6331H39.6663C39.6717 6.6331 39.6744 6.6358 39.6771 6.6385C39.6798 6.6412 39.6798 6.6466 39.6798 6.652C39.6204 6.81668 38.6027 9.60545 38.6027 9.60545C38.6 9.61084 38.5946 9.61354 38.5892 9.61354H37.7415Z" fill="#0066B3"/>
<path d="M42.285 9.61354C42.2796 9.61354 42.2769 9.61084 42.2742 9.60814C42.2715 9.60545 42.2715 9.60005 42.2715 9.59465C42.3687 9.32468 43.2704 6.85178 43.346 6.6412C43.3487 6.6358 43.3541 6.6331 43.3595 6.6331H44.2099C44.2153 6.6331 44.218 6.6358 44.2207 6.6385C44.2234 6.6412 44.2234 6.6466 44.2234 6.652C44.1262 6.92197 43.2245 9.39487 43.1489 9.60545C43.1462 9.61084 43.1408 9.61354 43.1354 9.61354H42.285Z" fill="#0066B3"/>
<path d="M31.9912 9.71613C31.4566 9.71613 31.0895 9.58655 30.806 9.29498C30.6116 9.08981 30.5846 8.73615 30.7358 8.3258C30.7358 8.3258 31.2838 6.82478 31.3486 6.6412C31.3513 6.6358 31.3567 6.6331 31.3621 6.6331H32.2017C32.2071 6.6331 32.2098 6.6358 32.2125 6.6385C32.2152 6.6412 32.2152 6.6466 32.2152 6.652L31.6888 8.09633C31.5997 8.3393 31.5295 8.59037 31.6024 8.77664C31.6915 8.99802 31.9723 9.1303 32.3556 9.1303C33.422 9.1303 33.7054 8.3528 33.7999 8.09633L34.3291 6.6439C34.3318 6.6385 34.3372 6.6358 34.3426 6.6358H35.1822C35.1876 6.6358 35.1903 6.6385 35.193 6.6412C35.1957 6.6439 35.1957 6.6493 35.1957 6.6547C35.1039 6.90847 34.1212 9.60814 34.1212 9.60814C34.1185 9.61354 34.1131 9.61624 34.1077 9.61624H33.3626C33.3572 9.61624 33.3545 9.61354 33.3518 9.61084C33.3491 9.60814 33.3491 9.60275 33.3491 9.59735C33.368 9.54065 33.3626 9.48666 33.3383 9.44886C33.314 9.41377 33.2762 9.39757 33.2276 9.39757C33.1925 9.39757 33.1574 9.40567 33.1196 9.42457C32.6931 9.66484 32.2719 9.71613 31.9912 9.71613Z" fill="#0066B3"/>
<path d="M22.6368 9.71613C21.9781 9.71613 21.4192 9.48126 21.1439 9.08711C20.9441 8.80094 20.9063 8.46348 21.0359 8.10982C21.3652 7.20273 22.6044 6.49272 23.857 6.49272C24.5212 6.49272 25.0584 6.71679 25.3284 7.10554C25.5308 7.39441 25.5659 7.74267 25.4309 8.10982C25.4282 8.12062 25.4228 8.12872 25.4201 8.13952C25.4201 8.13952 25.4201 8.14222 25.4174 8.14222C25.4039 8.17462 25.3742 8.19621 25.3392 8.19891C25.3365 8.19891 25.3311 8.20161 25.3284 8.20161H23.255C23.1308 8.20161 23.0282 8.15842 22.9634 8.07473C22.8932 7.98564 22.869 7.86145 22.9013 7.72377C22.9013 7.72107 22.9013 7.71837 22.904 7.71567C22.9148 7.66978 22.9553 7.64008 23.0012 7.64008H23.0039H24.5212C24.4132 7.32962 24.0514 7.13524 23.5763 7.13524C23.2604 7.13524 22.8689 7.25133 22.5774 7.42951C22.2723 7.60768 22.059 7.84256 21.9619 8.10982C21.8782 8.3393 21.8998 8.54987 22.0186 8.72265C22.1751 8.94672 22.4856 9.07361 22.869 9.07361C23.3117 9.07361 23.7517 8.92243 24.0838 8.66056C24.0865 8.65786 24.0892 8.65786 24.0919 8.65786H24.8559C24.9126 8.65786 24.9585 8.70375 24.9585 8.75775C24.9585 8.77934 24.9504 8.80364 24.9369 8.81984L24.9315 8.82524C24.9315 8.82794 24.9288 8.82794 24.9288 8.83064C24.3511 9.37597 23.4737 9.71613 22.6368 9.71613Z" fill="#0066B3"/>
<path d="M45.9377 9.71613C45.279 9.71613 44.7201 9.48126 44.4448 9.08711C44.245 8.80094 44.2072 8.46348 44.3341 8.10982C44.6634 7.20273 45.9026 6.49272 47.1552 6.49272C47.8193 6.49272 48.3539 6.71679 48.6265 7.10554C48.829 7.39441 48.8641 7.74267 48.7291 8.10982C48.7264 8.12062 48.721 8.12872 48.7183 8.13952C48.7183 8.13952 48.7183 8.14222 48.7156 8.14222C48.7021 8.17462 48.6724 8.19621 48.6374 8.19891C48.6347 8.19891 48.6292 8.20161 48.6265 8.20161H46.5532C46.429 8.20161 46.3264 8.15842 46.2616 8.07473C46.1914 7.98564 46.1671 7.86145 46.1995 7.72377C46.1995 7.72107 46.1995 7.71837 46.2022 7.71567C46.213 7.66978 46.2535 7.64008 46.2994 7.64008H46.3021H47.8193C47.7114 7.32962 47.3496 7.13524 46.8772 7.13524C46.5613 7.13524 46.1698 7.25133 45.8783 7.42951C45.5732 7.60768 45.3599 7.84256 45.2628 8.10982C45.1791 8.3393 45.198 8.54987 45.3194 8.72265C45.476 8.94672 45.7838 9.07361 46.1698 9.07361C46.6099 9.07361 47.0526 8.92243 47.3847 8.66056C47.3874 8.65786 47.3901 8.65786 47.3928 8.65786H48.1568C48.2135 8.65786 48.2594 8.70375 48.2594 8.75775C48.2594 8.77934 48.2513 8.80364 48.2378 8.81984L48.2324 8.82524C48.2324 8.82794 48.2297 8.82794 48.2297 8.83064C47.6493 9.37597 46.7719 9.71613 45.9377 9.71613Z" fill="#0066B3"/>
<path d="M27.5448 9.71613C26.9833 9.71613 26.4703 9.54605 26.1734 9.25989C25.8575 8.96292 25.7738 8.54987 25.9358 8.10172C26.2516 7.23513 27.4908 6.53051 28.6976 6.53051C29.4994 6.53051 30.1473 6.87877 30.3039 7.39441V7.39711C30.3066 7.40791 30.3066 7.41601 30.3066 7.42411C30.3066 7.4754 30.2661 7.51859 30.2148 7.52399C30.2121 7.52399 30.2094 7.52399 30.2067 7.52399H29.3347C29.3293 7.52399 29.3239 7.52129 29.3212 7.5159C29.1862 7.24593 28.9054 7.11634 28.4654 7.11634C27.7149 7.11634 27.0184 7.53479 26.8078 8.10982C26.716 8.35819 26.7349 8.58497 26.8591 8.76314C27.0237 8.99802 27.3531 9.1276 27.7851 9.1276C28.1549 9.1276 28.5734 8.98182 28.873 8.74695C28.8757 8.74425 28.8784 8.74425 28.8811 8.74425H29.6343C29.6397 8.74425 29.6451 8.74425 29.6505 8.74695C29.6991 8.75505 29.7342 8.79554 29.7342 8.84684C29.7342 8.87113 29.7261 8.89543 29.7072 8.91433V8.91703C29.7072 8.91703 29.7072 8.91973 29.7045 8.91973C29.7045 8.92243 29.7018 8.92243 29.7018 8.92243C29.1565 9.40297 28.3088 9.71613 27.5448 9.71613Z" fill="#0066B3"/>
<path d="M17.5425 9.71613C17.286 9.71613 17.0242 9.69993 16.765 9.67024C16.4923 9.63514 16.2412 9.58385 15.9983 9.50556C15.9956 9.50286 15.9929 9.50286 15.9902 9.49746C15.9875 9.49476 15.9875 9.48936 15.9902 9.48666L16.1657 9.00342C16.1819 8.96562 16.2196 8.94132 16.2601 8.94132C16.2682 8.94132 16.2763 8.94133 16.2871 8.94402H16.2898C16.5274 9.01152 16.7569 9.06551 16.9648 9.10061C17.1969 9.1411 17.4291 9.16 17.6505 9.16C18.0284 9.16 18.3524 9.1087 18.6116 9.00882C18.868 8.90893 19.0273 8.77934 19.0867 8.61736C19.1731 8.38249 18.841 8.10443 18.104 7.79126L17.9069 7.70217C17.4264 7.5024 17.0997 7.31342 16.9432 7.13794C16.7839 6.96246 16.7407 6.76269 16.8217 6.54401C16.9378 6.22815 17.2617 5.96088 17.7882 5.75301C18.3119 5.54513 18.9112 5.43985 19.5699 5.43985C19.8588 5.43985 20.1342 5.45604 20.3906 5.48844C20.6606 5.52354 20.9036 5.57213 21.1277 5.64232C21.1304 5.64232 21.1331 5.64502 21.1358 5.65042C21.1385 5.65312 21.1385 5.65852 21.1358 5.66122L20.9738 6.11207C20.9738 6.11207 20.9738 6.11476 20.9711 6.11476C20.9576 6.15526 20.9198 6.18226 20.8766 6.18226C20.8685 6.18226 20.8604 6.18226 20.8496 6.17956H20.8469C20.6579 6.12286 20.4635 6.07967 20.2719 6.04997C20.0559 6.01488 19.8318 5.99868 19.605 5.99868C19.2136 5.99868 18.8734 6.04997 18.6035 6.14986C18.3335 6.24975 18.1661 6.38203 18.1067 6.54671C18.023 6.77889 18.3794 7.05695 19.165 7.37551C19.2109 7.39441 19.3324 7.43761 19.3378 7.44031C19.7994 7.63468 20.1153 7.82366 20.2746 7.99914C20.4338 8.17462 20.4743 8.38249 20.3879 8.61466C20.2719 8.93593 19.9398 9.20319 19.408 9.40837C18.8788 9.61354 18.2525 9.71613 17.5425 9.71613Z" fill="#0066B3"/>
<path d="M39.9336 9.61355C39.9282 9.61355 39.9255 9.61085 39.9228 9.60815C39.9201 9.60545 39.9201 9.60005 39.9201 9.59465C40.0146 9.33548 40.811 7.15144 40.811 7.15144H40.3331C40.3277 7.15144 40.3251 7.14874 40.3224 7.14604C40.3197 7.14334 40.3197 7.13794 40.3197 7.13254L40.4978 6.6412C40.5005 6.6358 40.5059 6.6331 40.5113 6.6331H41C41 6.6331 41.3212 5.75301 41.3779 5.59643C41.3806 5.59103 41.386 5.58833 41.3914 5.58833H42.2418C42.2472 5.58833 42.2499 5.59103 42.2526 5.59373C42.2553 5.59643 42.2553 5.60183 42.2553 5.60723L41.8828 6.6331H42.4767C42.4821 6.6331 42.4848 6.6358 42.4875 6.6385C42.4902 6.6412 42.4902 6.6466 42.4902 6.652L42.3093 7.14334C42.3066 7.14874 42.3012 7.15144 42.2958 7.15144H41.6938C41.6938 7.15144 40.8758 9.39487 40.8002 9.60545C40.7975 9.61085 40.7921 9.61355 40.7867 9.61355H39.9336Z" fill="#0066B3"/>
<path d="M49.9008 9.71613C49.6983 9.71613 49.4877 9.70533 49.2799 9.68374C49.0747 9.66214 48.8668 9.63514 48.6643 9.60005C48.6589 9.60005 48.6562 9.59735 48.6562 9.59465C48.6535 9.59195 48.6535 9.58655 48.6535 9.58385L48.8263 9.1141C48.8263 9.1141 48.8263 9.11141 48.829 9.11141C48.8425 9.07091 48.8803 9.04391 48.9235 9.04391C48.9343 9.04391 48.9451 9.04661 48.9586 9.04931H48.9613C49.0963 9.10061 49.2367 9.1384 49.3744 9.1654C49.5471 9.20049 49.7361 9.21669 49.9305 9.21669C50.214 9.21669 50.4623 9.1816 50.6675 9.10871C50.8727 9.03851 50.9969 8.94672 51.0374 8.83604C51.086 8.70375 50.897 8.53637 50.4785 8.3366C50.4272 8.3123 50.3813 8.2907 50.3516 8.27181C49.9386 8.08283 49.6686 7.92355 49.5498 7.79936C49.4284 7.67248 49.396 7.53479 49.4527 7.38091C49.5471 7.12444 49.8171 6.91117 50.2545 6.74649C50.6945 6.58181 51.2236 6.49812 51.8257 6.49812C52.0254 6.49812 52.2198 6.50892 52.4034 6.53052C52.5816 6.54941 52.7598 6.57911 52.9298 6.6196C52.9352 6.6196 52.9379 6.6223 52.9379 6.6277C52.9406 6.6304 52.9406 6.6358 52.9379 6.6385L52.7706 7.09475C52.7544 7.13524 52.7166 7.16224 52.6761 7.16224C52.6626 7.16224 52.6464 7.15954 52.6329 7.15144H52.6302C52.5357 7.10825 52.4277 7.07315 52.3116 7.04885C52.1523 7.01376 51.958 6.99756 51.7339 6.99756C51.4855 6.99756 51.2641 7.02996 51.0806 7.09745C50.8943 7.16224 50.7809 7.24863 50.7431 7.35392C50.6918 7.4916 50.8673 7.65088 51.2776 7.83716C51.3694 7.88035 51.4234 7.90195 51.4585 7.91545C51.8419 8.08823 52.0983 8.24481 52.2198 8.38519C52.3413 8.52288 52.3737 8.67946 52.3116 8.84684C52.2171 9.10871 51.9472 9.32198 51.5098 9.47856C51.0779 9.63514 50.5325 9.71613 49.9008 9.71613Z" fill="#0066B3"/>
</g>
<defs>
<linearGradient id="paint0_linear_171_87509" x1="5.66351" y1="0" x2="5.66351" y2="11.2471" gradientUnits="userSpaceOnUse">
<stop stop-color="#014DA1"/>
<stop offset="1" stop-color="#00ADEE"/>
</linearGradient>
<linearGradient id="paint1_linear_171_87509" x1="5.66351" y1="0" x2="5.66351" y2="11.2471" gradientUnits="userSpaceOnUse">
<stop stop-color="#014DA1"/>
<stop offset="1" stop-color="#00ADEE"/>
</linearGradient>
<clipPath id="clip0_171_87509">
<rect width="94" height="57.2061" fill="white"/>
</clipPath>
</defs>
</svg>
