<svg width="94" height="58" fill="none" xmlns="http://www.w3.org/2000/svg"><g clip-path="url(#clip0_171_87509)"><path d="M9.638 16.141h5.955c6.18 0 9.268 3.046 9.268 7.646v.043c0 4.6-3.156 7.867-9.443 7.867h-5.78V16.14zm6.066 11.023c2.378 0 3.912-.977 3.912-3.223v-.046c0-2.244-1.534-3.224-3.912-3.224h-.867v6.49h.867v.003zm8.801-11.023h5.445l2.2 7.468 2.511-7.51h4.49l2.51 7.51 2.2-7.468h7.03l-6.765 15.67h-4.533l-2.732-7.735-2.734 7.734h-4.533l-5.089-15.669zm37.318 36.667l5.415-8.099c2.468 1.877 5.094 2.843 7.883 2.843 4.023 0 6.169-2.521 6.596-7.133-2.093 2.093-4.936 3.486-8.313 3.486-6.382 0-11.797-4.56-11.797-11.639v-.108c0-8.957 6.919-14.105 15.606-14.105 5.845 0 9.385 1.768 12.227 4.61 2.735 2.735 4.557 7.241 4.557 13.677v.108c0 12.335-6.541 20.755-18.287 20.755-5.737.003-10.135-1.657-13.887-4.395zm20.002-21.127v-.108c0-2.468-1.718-4.503-4.185-4.503-2.468 0-4.076 1.984-4.076 4.451v.108c0 2.414 1.717 4.236 4.181 4.236 2.465 0 4.08-1.879 4.08-4.184zM53.092 18.595l-7.789 18.76v19.047h12.335V18.595h-4.546z" fill="#0066B2"/><path d="M6.474.424L6.47.159c0-.086.07-.156.157-.156a.06.06 0 01.021.002h.008a5.676 5.676 0 014.371 3.753v.003a.157.157 0 01-.149.205H7.414c-.005 0-.01 0-.013-.003h-.003a.155.155 0 01-.113-.094l-.273-.664c-.373-.989-.545-1.923-.537-2.781zM3.248 5.799v-.003a.145.145 0 00.01-.06.157.157 0 00-.156-.156H.157A.157.157 0 000 5.737v.005a5.658 5.658 0 001.512 3.696l.003.003a.16.16 0 00.26-.051l1.473-3.591zm4.994 4.665c0-.003 0-.003-.003-.005l-1.776-4.33c0-.003-.003-.006-.003-.006a.86.86 0 00-1.574-.057l-1.803 4.395a.163.163 0 00.067.197l.009.006a5.652 5.652 0 002.505.583c.902 0 1.75-.21 2.505-.583 0 0 .003 0 .003-.003a.16.16 0 00.084-.138.147.147 0 00-.014-.06zm3.086-4.72V5.74a.157.157 0 00-.157-.157H8.226a.157.157 0 00-.143.219l1.474 3.59a.16.16 0 00.146.097.153.153 0 00.11-.046l.006-.005a5.662 5.662 0 001.509-3.693zM.448 3.965H3.91a.157.157 0 00.132-.098l.273-.667c.373-.983.545-1.917.537-2.775V.157A.153.153 0 004.697 0c-.008 0-.013 0-.021.003h-.008A5.669 5.669 0 00.3 3.753v.002a.159.159 0 00.148.208z" fill="url(#paint0_linear_171_87509)"/><path d="M32.358 5.69c-.604 0-1.077-.18-1.333-.507-.219-.288-.26-.672-.108-1.085.159-.437.437-.767.904-1.066a3.12 3.12 0 011.725-.527c.564 0 .986.187 1.185.521l.076.125.194-.535a.015.015 0 01.014-.008h.764c.005 0 .008.003.01.005.003.003.003.008.003.014-.097.27-.999 2.743-1.074 2.953a.015.015 0 01-.014.008h-.766c-.006 0-.009-.002-.011-.005-.003-.003-.003-.008-.003-.014l.005-.018c.02-.065.011-.125-.021-.165-.027-.038-.076-.057-.13-.057a.286.286 0 00-.127.033c-.002 0-.002.002-.005.002-.38.2-.877.327-1.288.327zm1.129-2.599c-.44 0-.87.14-1.207.394-.235.178-.408.4-.494.637-.076.208-.065.408.035.573.151.253.494.405.92.405h.033c.432 0 .85-.138 1.18-.384.232-.175.397-.391.483-.626.084-.23.073-.443-.03-.616-.145-.242-.467-.383-.885-.383h-.036zM44.318 5.69c-.605 0-1.077-.18-1.331-.507-.219-.288-.26-.675-.108-1.085.16-.437.437-.767.904-1.066a3.12 3.12 0 011.725-.527c.565 0 .986.187 1.186.521l.072.125.195-.535a.015.015 0 01.013-.008h.764c.006 0 .008.003.011.005.003.003.003.008.003.014L46.677 5.58a.015.015 0 01-.013.008h-.767c-.005 0-.008-.002-.01-.005-.003-.003-.003-.008-.003-.014l.005-.018c.019-.065.01-.125-.022-.165-.026-.038-.072-.057-.13-.057a.279.279 0 00-.126.033h-.005a2.94 2.94 0 01-1.288.329zm1.128-2.599c-.44 0-.869.14-1.206.394-.235.178-.408.4-.495.637-.075.208-.064.408.036.573.15.253.494.405.92.405h.03c.432 0 .85-.138 1.18-.384.232-.175.396-.391.483-.626.084-.23.073-.443-.03-.616-.146-.242-.467-.383-.885-.383h-.033zM27.534 5.69c-.534 0-.902-.129-1.188-.42-.194-.205-.221-.56-.07-.97 0 0 .548-1.5.613-1.684a.015.015 0 01.013-.008h.84c.005 0 .008.003.01.005.003.003.003.008.003.014L27.23 4.07c-.09.243-.162.494-.087.68.087.222.37.354.754.354 1.066 0 1.35-.777 1.444-1.034l.53-1.452a.015.015 0 01.013-.008h.84c.005 0 .007.002.01.005s.003.008.003.013c-.114.314-1.005 2.757-1.075 2.954a.015.015 0 01-.013.008h-.745c-.006 0-.008-.003-.011-.005-.003-.003-.003-.008-.003-.014.02-.057.016-.11-.01-.148-.025-.035-.063-.052-.111-.052a.236.236 0 00-.108.027c-.424.24-.845.292-1.126.292zm11.004-.102c-.005 0-.008-.002-.01-.005-.004-.003-.004-.008-.004-.014l.527-1.444c.089-.243.162-.494.086-.68-.089-.222-.37-.354-.753-.354-1.066 0-1.35.778-1.444 1.034l-.53 1.455a.015.015 0 01-.013.008h-.84c-.005 0-.008-.002-.01-.005-.003-.003-.003-.008-.003-.014l1.074-2.953a.015.015 0 01.014-.008h.745c.005 0 .008.003.01.005.004.003.004.008.004.014-.02.056-.017.11.01.148a.132.132 0 00.111.052.25.25 0 00.108-.027 2.27 2.27 0 011.12-.292c.535 0 .902.13 1.188.421.195.205.222.559.07.97 0 0-.548 1.5-.612 1.684a.015.015 0 01-.014.008h-.834v-.003zm1.982 0c-.006 0-.009-.002-.011-.005-.003-.003-.003-.008-.003-.014l.89-2.443h-.477c-.005 0-.008-.002-.01-.005-.003-.003-.003-.008-.003-.014l.178-.491a.015.015 0 01.013-.008h.489l.378-1.037a.015.015 0 01.013-.008h.85c.006 0 .009.003.011.006.003.002.003.008.003.013l-.372 1.026h.593c.006 0 .009.003.011.005.003.003.003.008.003.014l-.178.491a.015.015 0 01-.014.008h-.602L41.39 5.58a.015.015 0 01-.014.008h-.856zm-17.675 0c-.006 0-.008-.002-.011-.005-.003-.003-.003-.008-.003-.014l.537-1.474-1.042-2.391a.108.108 0 01-.008-.041.1.1 0 01.1-.1h.945c.005 0 .01.003.014.008.037.092.323.735.588 1.331l.003.003c.046.11.154.175.291.175a.63.63 0 00.378-.143c.745-.634 1.531-1.306 1.604-1.368.003-.003.005-.003.008-.003h.823a.1.1 0 01.062.178s0 .003-.002.003L24.392 4.1s-.476 1.306-.54 1.485a.015.015 0 01-.014.008h-.993v-.006zm12.162 4.026c-.006 0-.008-.003-.011-.006-.003-.003-.003-.008-.003-.013L36.07 6.64a.015.015 0 01.014-.008h.829c.005 0 .008.003.01.005.003.003.003.009 0 .014l-.091.254h.016a1.518 1.518 0 011.042-.373h.057c.005 0 .008.003.01.006.003.002.003.008.003.013l-.248.678a.015.015 0 01-.014.008 1.725 1.725 0 00-.659.143c-.34.165-.434.38-.523.645l-.575 1.577a.015.015 0 01-.014.008h-.92v.003zm2.735 0a.012.012 0 01-.011-.006c-.003-.003-.003-.008-.003-.013.097-.27.999-2.743 1.074-2.954a.015.015 0 01.014-.008h.85c.006 0 .008.003.011.005.003.003.003.009.003.014l-1.077 2.953a.015.015 0 01-.014.009h-.847zm4.543 0c-.005 0-.008-.003-.01-.006-.003-.003-.003-.008-.003-.013.097-.27.998-2.743 1.074-2.954a.015.015 0 01.014-.008h.85c.005 0 .008.003.01.005.003.003.003.009.003.014-.097.27-.998 2.743-1.074 2.953a.015.015 0 01-.014.009h-.85zm-10.294.102c-.534 0-.901-.13-1.185-.421-.194-.205-.221-.559-.07-.97 0 0 .548-1.5.613-1.684a.015.015 0 01.013-.008h.84c.005 0 .008.003.01.005.003.003.003.009.003.014l-.526 1.444c-.09.243-.16.494-.087.68.09.222.37.354.754.354 1.066 0 1.35-.777 1.444-1.034l.53-1.452a.015.015 0 01.013-.008h.84c.005 0 .007.002.01.005s.003.008.003.014L34.12 9.608a.015.015 0 01-.013.008h-.745c-.006 0-.008-.002-.011-.005-.003-.003-.003-.008-.003-.014a.174.174 0 00-.01-.148c-.025-.035-.063-.051-.111-.051a.236.236 0 00-.108.027c-.427.24-.848.291-1.129.291zm-9.354 0c-.659 0-1.218-.235-1.493-.629-.2-.286-.238-.624-.108-.977.33-.907 1.568-1.617 2.821-1.617.664 0 1.201.224 1.471.613.203.288.238.637.103 1.004-.003.01-.008.019-.01.03 0 0 0 .002-.004.002a.092.092 0 01-.078.057l-.01.003h-2.074a.354.354 0 01-.292-.127.406.406 0 01-.062-.351c0-.003 0-.006.003-.008a.098.098 0 01.097-.076h1.52c-.108-.31-.47-.505-.945-.505a2.06 2.06 0 00-.999.295c-.305.178-.518.413-.615.68-.084.23-.062.44.057.613.156.224.467.35.85.35.443 0 .883-.15 1.215-.412.003-.003.005-.003.008-.003h.764c.057 0 .102.046.102.1a.102.102 0 01-.021.062l-.006.005-.002.006c-.578.545-1.455.885-2.292.885zm23.301 0c-.659 0-1.218-.235-1.493-.629-.2-.286-.238-.624-.11-.977.328-.907 1.568-1.617 2.82-1.617.664 0 1.199.224 1.471.613.203.288.238.637.103 1.004-.003.01-.008.019-.01.03 0 0 0 .002-.003.002a.092.092 0 01-.079.057l-.01.003h-2.074a.354.354 0 01-.291-.127.406.406 0 01-.063-.351c0-.003 0-.006.003-.008a.098.098 0 01.097-.076h1.521c-.108-.31-.47-.505-.942-.505a2.06 2.06 0 00-.999.295c-.305.178-.518.413-.615.68-.084.23-.065.44.056.613.157.224.465.35.85.35.44 0 .884-.15 1.216-.412.002-.003.005-.003.008-.003h.764c.057 0 .102.046.102.1a.102.102 0 01-.021.062l-.006.005-.002.006c-.58.545-1.458.885-2.292.885zm-18.393 0c-.562 0-1.075-.17-1.372-.456-.315-.297-.4-.71-.237-1.158.316-.867 1.555-1.571 2.762-1.571.801 0 1.45.348 1.606.863v.003a.102.102 0 01-.09.127h-.879a.015.015 0 01-.014-.008c-.135-.27-.416-.4-.856-.4-.75 0-1.447.419-1.657.994-.092.248-.073.475.051.653.165.235.494.365.926.365.37 0 .788-.146 1.088-.381.003-.003.005-.003.008-.003h.753c.006 0 .011 0 .017.003a.1.1 0 01.083.1.094.094 0 01-.027.067v.003s0 .003-.003.003c0 .002-.002.002-.002.002-.546.481-1.393.794-2.157.794zm-10.002 0c-.257 0-.519-.016-.778-.046a4.235 4.235 0 01-.767-.164c-.002-.003-.005-.003-.008-.009a.008.008 0 010-.01l.176-.484a.103.103 0 01.094-.062c.008 0 .016 0 .027.003h.003c.237.068.467.122.675.157.232.04.464.059.686.059.377 0 .701-.051.96-.151.257-.1.416-.23.476-.392.086-.235-.246-.513-.983-.826l-.197-.089c-.48-.2-.807-.389-.964-.564a.548.548 0 01-.121-.594c.116-.316.44-.583.966-.791.524-.208 1.123-.313 1.782-.313.289 0 .564.016.82.048.27.036.514.084.738.154.002 0 .005.003.008.008a.008.008 0 010 .011l-.162.451s0 .003-.003.003a.099.099 0 01-.094.067c-.008 0-.017 0-.027-.002h-.003a4.308 4.308 0 00-1.242-.181c-.391 0-.732.051-1.002.15-.27.1-.437.233-.496.398-.084.232.272.51 1.058.829l.173.064c.461.195.777.384.937.56.159.175.2.382.113.615-.116.32-.448.588-.98.793-.53.206-1.155.308-1.866.308zm22.391-.102c-.006 0-.008-.003-.011-.006-.003-.003-.003-.008-.003-.013l.891-2.444h-.478c-.005 0-.008-.002-.01-.005-.003-.003-.003-.008-.003-.013l.178-.492a.015.015 0 01.013-.008H41l.378-1.037a.015.015 0 01.013-.008h.85c.006 0 .009.003.012.006.002.002.002.008.002.013l-.372 1.026h.594c.005 0 .008.003.01.005.003.003.003.009.003.014l-.18.491a.015.015 0 01-.014.008h-.602L40.8 9.605a.015.015 0 01-.013.009h-.853zm9.966.102c-.202 0-.412-.01-.62-.032a9.372 9.372 0 01-.616-.084c-.005 0-.008-.003-.008-.005-.002-.003-.002-.008-.002-.011l.172-.47s0-.003.003-.003a.099.099 0 01.094-.067c.011 0 .022.003.036.005h.002c.135.052.276.09.413.116.173.035.362.052.556.052.284 0 .532-.035.737-.108.206-.07.33-.162.37-.273.049-.132-.14-.3-.559-.5-.05-.024-.097-.045-.126-.064-.413-.19-.683-.348-.802-.473-.122-.127-.154-.264-.097-.418.094-.257.364-.47.801-.635.44-.164.97-.248 1.572-.248a4.97 4.97 0 011.104.122c.005 0 .008.002.008.008a.008.008 0 010 .01l-.167.457a.104.104 0 01-.095.067.085.085 0 01-.043-.01h-.003a1.52 1.52 0 00-.318-.103 2.746 2.746 0 00-.578-.051c-.248 0-.47.032-.653.1-.187.064-.3.15-.338.256-.051.138.124.297.535.483.091.043.145.065.18.078.384.173.64.33.762.47a.432.432 0 01.092.462c-.095.262-.365.475-.802.632-.432.156-.977.237-1.61.237z" fill="#0066B2"/><path d="M9.638 16.141h5.955c6.18 0 9.268 3.046 9.268 7.646v.043c0 4.6-3.156 7.867-9.443 7.867h-5.78V16.14zm6.066 11.023c2.378 0 3.912-.977 3.912-3.223v-.046c0-2.244-1.534-3.224-3.912-3.224h-.867v6.49h.867v.003zm8.801-11.023h5.445l2.2 7.468 2.511-7.51h4.49l2.51 7.51 2.2-7.468h7.03l-6.765 15.67h-4.533l-2.732-7.735-2.734 7.734h-4.533l-5.089-15.669zm37.318 36.667l5.415-8.099c2.468 1.877 5.094 2.843 7.883 2.843 4.023 0 6.169-2.521 6.596-7.133-2.093 2.093-4.936 3.486-8.313 3.486-6.382 0-11.797-4.56-11.797-11.639v-.108c0-8.957 6.919-14.105 15.606-14.105 5.845 0 9.385 1.768 12.227 4.61 2.735 2.735 4.557 7.241 4.557 13.677v.108c0 12.335-6.541 20.755-18.287 20.755-5.737.003-10.135-1.657-13.887-4.395zm20.002-21.127v-.108c0-2.468-1.718-4.503-4.185-4.503-2.468 0-4.076 1.984-4.076 4.451v.108c0 2.414 1.717 4.236 4.181 4.236 2.465 0 4.08-1.879 4.08-4.184zM53.092 18.595l-7.789 18.76v19.047h12.335V18.595h-4.546z" fill="#0066B3"/><path d="M6.474.424L6.47.159c0-.086.07-.156.157-.156a.06.06 0 01.021.002h.008a5.676 5.676 0 014.371 3.753v.003a.157.157 0 01-.149.205H7.414c-.005 0-.01 0-.013-.003h-.003a.155.155 0 01-.113-.094l-.273-.664c-.373-.989-.545-1.923-.537-2.781zM3.248 5.799v-.003a.145.145 0 00.01-.06.157.157 0 00-.156-.156H.157A.157.157 0 000 5.737v.005a5.658 5.658 0 001.512 3.696l.003.003a.16.16 0 00.26-.051l1.473-3.591zm4.994 4.665c0-.003 0-.003-.003-.005l-1.776-4.33c0-.003-.003-.006-.003-.006a.86.86 0 00-1.574-.057l-1.803 4.395a.163.163 0 00.067.197l.009.006a5.652 5.652 0 002.505.583c.902 0 1.75-.21 2.505-.583 0 0 .003 0 .003-.003a.16.16 0 00.084-.138.147.147 0 00-.014-.06zm3.086-4.72V5.74a.157.157 0 00-.157-.157H8.226a.157.157 0 00-.143.219l1.474 3.59a.16.16 0 00.146.097.153.153 0 00.11-.046l.006-.005a5.662 5.662 0 001.509-3.693zM.448 3.965H3.91a.157.157 0 00.132-.098l.273-.667c.373-.983.545-1.917.537-2.775V.157A.153.153 0 004.697 0c-.008 0-.013 0-.021.003h-.008A5.669 5.669 0 00.3 3.753v.002a.159.159 0 00.148.208z" fill="url(#paint1_linear_171_87509)"/><path d="M32.358 5.69c-.604 0-1.077-.18-1.333-.507-.219-.288-.26-.672-.108-1.085.159-.437.437-.767.904-1.066a3.12 3.12 0 011.725-.527c.564 0 .986.187 1.185.521l.076.125.194-.535a.015.015 0 01.014-.008h.764c.005 0 .008.003.01.005.003.003.003.008.003.014-.097.27-.999 2.743-1.074 2.953a.015.015 0 01-.014.008h-.766c-.006 0-.009-.002-.011-.005-.003-.003-.003-.008-.003-.014l.005-.018c.02-.065.011-.125-.021-.165-.027-.038-.076-.057-.13-.057a.286.286 0 00-.127.033c-.002 0-.002.002-.005.002-.38.2-.877.327-1.288.327zm1.129-2.599c-.44 0-.87.14-1.207.394-.235.178-.408.4-.494.637-.076.208-.065.408.035.573.151.253.494.405.92.405h.033c.432 0 .85-.138 1.18-.384.232-.175.397-.391.483-.626.084-.23.073-.443-.03-.616-.145-.242-.467-.383-.885-.383h-.036zM44.318 5.69c-.605 0-1.077-.18-1.331-.507-.219-.288-.26-.675-.108-1.085.16-.437.437-.767.904-1.066a3.12 3.12 0 011.725-.527c.565 0 .986.187 1.186.521l.072.125.195-.535a.015.015 0 01.013-.008h.764c.006 0 .008.003.011.005.003.003.003.008.003.014L46.677 5.58a.015.015 0 01-.013.008h-.767c-.005 0-.008-.002-.01-.005-.003-.003-.003-.008-.003-.014l.005-.018c.019-.065.01-.125-.022-.165-.026-.038-.072-.057-.13-.057a.279.279 0 00-.126.033h-.005a2.94 2.94 0 01-1.288.329zm1.128-2.599c-.44 0-.869.14-1.206.394-.235.178-.408.4-.495.637-.075.208-.064.408.036.573.15.253.494.405.92.405h.03c.432 0 .85-.138 1.18-.384.232-.175.396-.391.483-.626.084-.23.073-.443-.03-.616-.146-.242-.467-.383-.885-.383h-.033zM27.534 5.69c-.534 0-.902-.129-1.188-.42-.194-.205-.221-.56-.07-.97 0 0 .548-1.5.613-1.684a.015.015 0 01.013-.008h.84c.005 0 .008.003.01.005.003.003.003.008.003.014L27.23 4.07c-.09.243-.162.494-.087.68.087.222.37.354.754.354 1.066 0 1.35-.777 1.444-1.034l.53-1.452a.015.015 0 01.013-.008h.84c.005 0 .007.002.01.005s.003.008.003.013c-.114.314-1.005 2.757-1.075 2.954a.015.015 0 01-.013.008h-.745c-.006 0-.008-.003-.011-.005-.003-.003-.003-.008-.003-.014.02-.057.016-.11-.01-.148-.025-.035-.063-.052-.111-.052a.236.236 0 00-.108.027c-.424.24-.845.292-1.126.292zm11.004-.102c-.005 0-.008-.002-.01-.005-.004-.003-.004-.008-.004-.014l.527-1.444c.089-.243.162-.494.086-.68-.089-.222-.37-.354-.753-.354-1.066 0-1.35.778-1.444 1.034l-.53 1.455a.015.015 0 01-.013.008h-.84c-.005 0-.008-.002-.01-.005-.003-.003-.003-.008-.003-.014l1.074-2.953a.015.015 0 01.014-.008h.745c.005 0 .008.003.01.005.004.003.004.008.004.014-.02.056-.017.11.01.148a.132.132 0 00.111.052.25.25 0 00.108-.027 2.27 2.27 0 011.12-.292c.535 0 .902.13 1.188.421.195.205.222.559.07.97 0 0-.548 1.5-.612 1.684a.015.015 0 01-.014.008h-.834v-.003zm1.982 0c-.006 0-.009-.002-.011-.005-.003-.003-.003-.008-.003-.014l.89-2.443h-.477c-.005 0-.008-.002-.01-.005-.003-.003-.003-.008-.003-.014l.178-.491a.015.015 0 01.013-.008h.489l.378-1.037a.015.015 0 01.013-.008h.85c.006 0 .009.003.011.006.003.002.003.008.003.013l-.372 1.026h.593c.006 0 .009.003.011.005.003.003.003.008.003.014l-.178.491a.015.015 0 01-.014.008h-.602L41.39 5.58a.015.015 0 01-.014.008h-.856zm-17.675 0c-.006 0-.008-.002-.011-.005-.003-.003-.003-.008-.003-.014l.537-1.474-1.042-2.391a.108.108 0 01-.008-.041.1.1 0 01.1-.1h.945c.005 0 .01.003.014.008.037.092.323.735.588 1.331l.003.003c.046.11.154.175.291.175a.63.63 0 00.378-.143c.745-.634 1.531-1.306 1.604-1.368.003-.003.005-.003.008-.003h.823a.1.1 0 01.062.178s0 .003-.002.003L24.392 4.1s-.476 1.306-.54 1.485a.015.015 0 01-.014.008h-.993v-.006zm12.162 4.026c-.006 0-.008-.003-.011-.006-.003-.003-.003-.008-.003-.013L36.07 6.64a.015.015 0 01.014-.008h.829c.005 0 .008.003.01.005.003.003.003.009 0 .014l-.091.254h.016a1.518 1.518 0 011.042-.373h.057c.005 0 .008.003.01.006.003.002.003.008.003.013l-.248.678a.015.015 0 01-.014.008 1.725 1.725 0 00-.659.143c-.34.165-.434.38-.523.645l-.575 1.577a.015.015 0 01-.014.008h-.92v.003zm2.735 0a.012.012 0 01-.011-.006c-.003-.003-.003-.008-.003-.013.097-.27.999-2.743 1.074-2.954a.015.015 0 01.014-.008h.85c.006 0 .008.003.011.005.003.003.003.009.003.014l-1.077 2.953a.015.015 0 01-.014.009h-.847zm4.543 0c-.005 0-.008-.003-.01-.006-.003-.003-.003-.008-.003-.013.097-.27.998-2.743 1.074-2.954a.015.015 0 01.014-.008h.85c.005 0 .008.003.01.005.003.003.003.009.003.014-.097.27-.998 2.743-1.074 2.953a.015.015 0 01-.014.009h-.85zm-10.294.102c-.534 0-.901-.13-1.185-.421-.194-.205-.221-.559-.07-.97 0 0 .548-1.5.613-1.684a.015.015 0 01.013-.008h.84c.005 0 .008.003.01.005.003.003.003.009.003.014l-.526 1.444c-.09.243-.16.494-.087.68.09.222.37.354.754.354 1.066 0 1.35-.777 1.444-1.034l.53-1.452a.015.015 0 01.013-.008h.84c.005 0 .007.002.01.005s.003.008.003.014L34.12 9.608a.015.015 0 01-.013.008h-.745c-.006 0-.008-.002-.011-.005-.003-.003-.003-.008-.003-.014a.174.174 0 00-.01-.148c-.025-.035-.063-.051-.111-.051a.236.236 0 00-.108.027c-.427.24-.848.291-1.129.291zm-9.354 0c-.659 0-1.218-.235-1.493-.629-.2-.286-.238-.624-.108-.977.33-.907 1.568-1.617 2.821-1.617.664 0 1.201.224 1.471.613.203.288.238.637.103 1.004-.003.01-.008.019-.01.03 0 0 0 .002-.004.002a.092.092 0 01-.078.057l-.01.003h-2.074a.354.354 0 01-.292-.127.406.406 0 01-.062-.351c0-.003 0-.006.003-.008a.098.098 0 01.097-.076h1.52c-.108-.31-.47-.505-.945-.505a2.06 2.06 0 00-.999.295c-.305.178-.518.413-.615.68-.084.23-.062.44.057.613.156.224.467.35.85.35.443 0 .883-.15 1.215-.412.003-.003.005-.003.008-.003h.764c.057 0 .102.046.102.1a.102.102 0 01-.021.062l-.006.005-.002.006c-.578.545-1.455.885-2.292.885zm23.301 0c-.659 0-1.218-.235-1.493-.629-.2-.286-.238-.624-.11-.977.328-.907 1.568-1.617 2.82-1.617.664 0 1.199.224 1.471.613.203.288.238.637.103 1.004-.003.01-.008.019-.01.03 0 0 0 .002-.003.002a.092.092 0 01-.079.057l-.01.003h-2.074a.354.354 0 01-.291-.127.406.406 0 01-.063-.351c0-.003 0-.006.003-.008a.098.098 0 01.097-.076h1.521c-.108-.31-.47-.505-.942-.505a2.06 2.06 0 00-.999.295c-.305.178-.518.413-.615.68-.084.23-.065.44.056.613.157.224.465.35.85.35.44 0 .884-.15 1.216-.412.002-.003.005-.003.008-.003h.764c.057 0 .102.046.102.1a.102.102 0 01-.021.062l-.006.005-.002.006c-.58.545-1.458.885-2.292.885zm-18.393 0c-.562 0-1.075-.17-1.372-.456-.315-.297-.4-.71-.237-1.158.316-.867 1.555-1.571 2.762-1.571.801 0 1.45.348 1.606.863v.003a.102.102 0 01-.09.127h-.879a.015.015 0 01-.014-.008c-.135-.27-.416-.4-.856-.4-.75 0-1.447.419-1.657.994-.092.248-.073.475.051.653.165.235.494.365.926.365.37 0 .788-.146 1.088-.381.003-.003.005-.003.008-.003h.753c.006 0 .011 0 .017.003a.1.1 0 01.083.1.094.094 0 01-.027.067v.003s0 .003-.003.003c0 .002-.002.002-.002.002-.546.481-1.393.794-2.157.794zm-10.002 0c-.257 0-.519-.016-.778-.046a4.235 4.235 0 01-.767-.164c-.002-.003-.005-.003-.008-.009a.008.008 0 010-.01l.176-.484a.103.103 0 01.094-.062c.008 0 .016 0 .027.003h.003c.237.068.467.122.675.157.232.04.464.059.686.059.377 0 .701-.051.96-.151.257-.1.416-.23.476-.392.086-.235-.246-.513-.983-.826l-.197-.089c-.48-.2-.807-.389-.964-.564a.548.548 0 01-.121-.594c.116-.316.44-.583.966-.791.524-.208 1.123-.313 1.782-.313.289 0 .564.016.82.048.27.036.514.084.738.154.002 0 .005.003.008.008a.008.008 0 010 .011l-.162.451s0 .003-.003.003a.099.099 0 01-.094.067c-.008 0-.017 0-.027-.002h-.003a4.308 4.308 0 00-1.242-.181c-.391 0-.732.051-1.002.15-.27.1-.437.233-.496.398-.084.232.272.51 1.058.829l.173.064c.461.195.777.384.937.56.159.175.2.382.113.615-.116.32-.448.588-.98.793-.53.206-1.155.308-1.866.308zm22.391-.102c-.006 0-.008-.003-.011-.006-.003-.003-.003-.008-.003-.013l.891-2.444h-.478c-.005 0-.008-.002-.01-.005-.003-.003-.003-.008-.003-.013l.178-.492a.015.015 0 01.013-.008H41l.378-1.037a.015.015 0 01.013-.008h.85c.006 0 .009.003.012.006.002.002.002.008.002.013l-.372 1.026h.594c.005 0 .008.003.01.005.003.003.003.009.003.014l-.18.491a.015.015 0 01-.014.008h-.602L40.8 9.605a.015.015 0 01-.013.009h-.853zm9.966.102c-.202 0-.412-.01-.62-.032a9.372 9.372 0 01-.616-.084c-.005 0-.008-.003-.008-.005-.002-.003-.002-.008-.002-.011l.172-.47s0-.003.003-.003a.099.099 0 01.094-.067c.011 0 .022.003.036.005h.002c.135.052.276.09.413.116.173.035.362.052.556.052.284 0 .532-.035.737-.108.206-.07.33-.162.37-.273.049-.132-.14-.3-.559-.5-.05-.024-.097-.045-.126-.064-.413-.19-.683-.348-.802-.473-.122-.127-.154-.264-.097-.418.094-.257.364-.47.801-.635.44-.164.97-.248 1.572-.248a4.97 4.97 0 011.104.122c.005 0 .008.002.008.008a.008.008 0 010 .01l-.167.457a.104.104 0 01-.095.067.085.085 0 01-.043-.01h-.003a1.52 1.52 0 00-.318-.103 2.746 2.746 0 00-.578-.051c-.248 0-.47.032-.653.1-.187.064-.3.15-.338.256-.051.138.124.297.535.483.091.043.145.065.18.078.384.173.64.33.762.47a.432.432 0 01.092.462c-.095.262-.365.475-.802.632-.432.156-.977.237-1.61.237z" fill="#0066B3"/></g><defs><linearGradient id="paint0_linear_171_87509" x1="5.664" y1="0" x2="5.664" y2="11.247" gradientUnits="userSpaceOnUse"><stop stop-color="#014DA1"/><stop offset="1" stop-color="#00ADEE"/></linearGradient><linearGradient id="paint1_linear_171_87509" x1="5.664" y1="0" x2="5.664" y2="11.247" gradientUnits="userSpaceOnUse"><stop stop-color="#014DA1"/><stop offset="1" stop-color="#00ADEE"/></linearGradient><clipPath id="clip0_171_87509"><path fill="#fff" d="M0 0h94v57.206H0z"/></clipPath></defs></svg>